<svg width="63" height="44" viewBox="0 0 63 44" fill="none" xmlns="http://www.w3.org/2000/svg">
<path d="M27.2887 16.9643C27.2887 21.6071 26.5845 25.5952 25.176 28.9286C23.7676 32.381 21.9484 35.1786 19.7183 37.3214C17.4883 39.5833 14.9648 41.1905 12.1479 42.1429C9.21361 43.2143 6.33802 43.75 3.52112 43.75L3.52112 37.5C6.57276 37.5 9.44835 36.4286 12.1479 34.2857C14.73 32.2619 16.2559 29.4643 16.7253 25.8929C16.3732 26.0119 15.9624 26.131 15.493 26.25C15.1408 26.3691 14.73 26.4881 14.2606 26.6071C13.6737 26.7262 13.0282 26.7857 12.3239 26.7857C8.80281 26.7857 5.86854 25.4167 3.52112 22.6786C1.1737 20.0595 -7.82998e-06 16.9643 -8.14221e-06 13.3929C-8.45444e-06 9.82143 1.23239 6.66667 3.69718 3.92857C6.04459 1.30953 9.21361 2.27566e-06 13.2042 1.92679e-06C17.6643 1.53688e-06 21.1267 1.66667 23.5915 5C26.0563 8.45238 27.2887 12.4405 27.2887 16.9643ZM62.5 16.9643C62.5 21.6071 61.7958 25.5952 60.3873 28.9286C58.9789 32.3809 57.1596 35.1786 54.9296 37.3214C52.6995 39.5833 50.1761 41.1905 47.3592 42.1429C44.4249 43.2143 41.5493 43.75 38.7324 43.75L38.7324 37.5C41.784 37.5 44.6596 36.4286 47.3592 34.2857C49.9413 32.2619 51.4671 29.4643 51.9366 25.8929C51.5845 26.0119 51.1737 26.1309 50.7042 26.25C50.3521 26.369 49.9413 26.4881 49.4718 26.6071C48.885 26.7262 48.2394 26.7857 47.5352 26.7857C44.0141 26.7857 41.0798 25.4167 38.7324 22.6786C36.385 20.0595 35.2113 16.9643 35.2113 13.3929C35.2113 9.82143 36.4437 6.66667 38.9084 3.92857C41.2559 1.30952 44.4249 -8.02576e-07 48.4155 -1.15144e-06C52.8756 -1.54135e-06 56.338 1.66666 58.8028 5C61.2676 8.45238 62.5 12.4405 62.5 16.9643Z" fill="#EDE9FE"/>
</svg>
